<svg width="45" height="40" fill="none" xmlns="http://www.w3.org/2000/svg"><path d="M37.395 8.2c-4.5 0-9.945 3.981-14.895 7.006-4.669 2.837-10.08 5.773-14.895 5.773-5.321 0-7.459-2.827-7.605-5.494 0 5.279 2.37 10.341 6.59 14.074 4.22 3.733 9.943 5.83 15.91 5.83 5.967 0 11.69-2.097 15.91-5.83C42.63 25.826 45 20.764 45 15.485v-.279c0-3.304-3.004-7.016-7.605-7.006Z" fill="url(#a)"/><path d="M37.395 20.989c-4.815 0-10.226-2.946-14.895-5.783C17.55 12.181 12.105 8.19 7.605 8.19 3.015 8.19 0 11.903 0 15.207v.278c0 5.279 2.37 10.342 6.59 14.074 4.22 3.733 9.943 5.83 15.91 5.83 5.967 0 11.69-2.097 15.91-5.83C42.63 25.827 45 20.764 45 15.485c-.146 2.667-2.284 5.504-7.605 5.504Z" fill="url(#b)"/><path d="M37.395 20.989c-4.815 0-10.226-2.946-14.895-5.783C17.55 12.181 12.105 8.19 7.605 8.19 3.015 8.19 0 11.903 0 15.207v.278c0 5.279 2.37 10.342 6.59 14.074 4.22 3.733 9.943 5.83 15.91 5.83 5.967 0 11.69-2.097 15.91-5.83C42.63 25.827 45 20.764 45 15.485c-.146 2.667-2.284 5.504-7.605 5.504Z" fill="url(#c)"/><path d="M37.395 20.989c-4.815 0-10.226-2.946-14.895-5.783C17.55 12.181 12.105 8.19 7.605 8.19 3.015 8.19 0 11.903 0 15.207v.278c0 5.279 2.37 10.342 6.59 14.074 4.22 3.733 9.943 5.83 15.91 5.83 5.967 0 11.69-2.097 15.91-5.83C42.63 25.827 45 20.764 45 15.485c-.146 2.667-2.284 5.504-7.605 5.504Z" fill="url(#d)"/><defs><linearGradient id="a" x1="22.5" y1="9.514" x2="22.5" y2="35.36" gradientUnits="userSpaceOnUse"><stop stop-color="#5558DB"/><stop offset="1"/></linearGradient><linearGradient id="b" x1="22.5" y1="8.19" x2="22.5" y2="27.231" gradientUnits="userSpaceOnUse"><stop stop-color="#00FF47"/><stop offset="1" stop-color="#5558DB"/></linearGradient><linearGradient id="c" x1="22.5" y1="8.19" x2="22.5" y2="27.231" gradientUnits="userSpaceOnUse"><stop stop-color="#00FFC2"/><stop offset="1" stop-color="#5558DB"/></linearGradient><linearGradient id="d" x1="22.5" y1="8.19" x2="22.5" y2="27.231" gradientUnits="userSpaceOnUse"><stop stop-color="#00FFC2"/><stop offset="1" stop-color="#5558DB"/></linearGradient></defs></svg>